<?xml version="1.0" encoding="UTF-8"?>
<svg width="32px" height="32px" viewBox="0 0 32 32" version="1.1" xmlns="http://www.w3.org/2000/svg" xmlns:xlink="http://www.w3.org/1999/xlink">
    <title>Heart</title>
    <g id="Page-1" stroke="none" stroke-width="1" fill="none" fill-rule="evenodd">
        <g id="Heart" fill="#FF9F43" fill-rule="nonzero">
            <path d="M16,28 C15.807,28 15.615,27.943 15.447,27.828 C14.834,27.395 14.25,26.988 13.741,26.633 L13.74,26.633 C10.858,24.625 8.388,22.915 6.673,21.201 C4.753,19.28 3.8,17.444 3.8,15.444 C3.8,13.524 4.471,11.767 5.686,10.517 C6.913,9.254 8.645,8.533 10.528,8.533 C11.914,8.533 13.175,8.967 14.272,9.824 C14.825,10.254 15.328,10.778 15.772,11.389 C16.217,10.778 16.72,10.254 17.273,9.824 C18.37,8.967 19.631,8.533 21.017,8.533 C22.9,8.533 24.632,9.254 25.859,10.517 C27.074,11.767 27.745,13.524 27.745,15.444 C27.745,17.444 26.792,19.28 24.872,21.2 C23.157,22.915 20.687,24.624 17.805,26.632 C17.295,26.988 16.71,27.396 16.096,27.83 C15.929,27.943 15.737,28 15.544,28 L16,28 Z" id="Path"></path>
        </g>
    </g>
</svg>